<?xml version="1.0" standalone="no"?>
<!DOCTYPE svg PUBLIC "-//W3C//DTD SVG 20010904//EN"
 "http://www.w3.org/TR/2001/REC-SVG-20010904/DTD/svg10.dtd">
<svg version="1.0" xmlns="http://www.w3.org/2000/svg"
 width="512.000000pt" height="512.000000pt" viewBox="0 0 512.000000 512.000000"
 preserveAspectRatio="xMidYMid meet">
<metadata>
Created by potrace 1.14, written by Peter Selinger 2001-2017
</metadata>
<g transform="translate(0.000000,512.000000) scale(0.100000,-0.100000)"
fill="#000000" stroke="none">
<path d="M2378 5115 c-2 -1 -39 -5 -82 -9 -44 -4 -82 -8 -85 -10 -3 -2 -31 -7
-61 -11 -73 -9 -204 -38 -314 -70 -568 -165 -1069 -534 -1406 -1034 -164 -245
-299 -554 -365 -836 -19 -81 -35 -178 -50 -295 -13 -106 -13 -527 0 -600 3
-19 13 -75 21 -125 71 -425 259 -839 538 -1185 148 -184 450 -453 612 -544 16
-9 52 -31 79 -48 128 -79 358 -181 524 -233 273 -85 447 -110 776 -110 243 0
350 9 490 40 6 2 26 5 45 9 33 6 116 27 225 59 225 66 516 211 730 365 50 36
92 68 95 71 3 3 28 24 55 46 63 50 268 254 320 320 22 27 48 59 58 70 39 43
188 275 241 376 118 223 214 497 251 714 3 17 10 54 15 83 18 103 25 209 25
402 0 169 -10 353 -20 370 -1 3 -6 27 -9 54 -4 27 -14 79 -22 115 -9 36 -18
75 -20 85 -12 61 -64 218 -109 331 -246 615 -722 1107 -1341 1387 -83 38 -344
131 -344 123 0 -3 -12 0 -27 6 -40 15 -224 53 -313 65 -25 3 -56 8 -70 10 -27
6 -456 14 -462 9z"/>
</g>
</svg>
